<?xml version="1.0" encoding="utf-8"?>
<!-- Generator: Adobe Illustrator 16.0.0, SVG Export Plug-In . SVG Version: 6.00 Build 0)  -->
<!DOCTYPE svg PUBLIC "-//W3C//DTD SVG 1.1//EN" "http://www.w3.org/Graphics/SVG/1.1/DTD/svg11.dtd">
<svg version="1.1" id="Layer_1" xmlns="http://www.w3.org/2000/svg" xmlns:xlink="http://www.w3.org/1999/xlink" x="0px" y="0px"
	 width="336.898px" height="126px" viewBox="0 0 336.898 126" enable-background="new 0 0 336.898 126" xml:space="preserve">
<path fill="#FFFFFF" d="M333.227,71.079c-1.588-0.705-3.439,0.088-4.146,1.676c-3.971,9.353-12.615,12.793-17.469,12.793
	c-2.382,0-5.47-1.06-6.616-3.264c-0.44-0.796-0.617-1.767-0.529-2.824c18.88-3.526,23.203-11.026,24.085-15.263
	c0.353-1.764,0.265-3.528-0.353-5.028c-0.529-1.573-1.5-2.896-2.823-3.779c-0.794-0.529-3.971-2.293-8.734-0.882
	c-4.233,1.323-8.293,4.661-12.175,10.043c-3.088,4.234-5.028,8.203-5.822,11.645c-0.073,0.318-0.138,0.634-0.192,0.943
	c-0.967,1.691-2.157,3.262-4.021,4.6c-2.382,1.767-4.939,2.296-6.352,2.296h-0.089c-1.411,0-2.823-0.089-3.528-1.146
	c-0.617-0.884-1.766-3.795,0.971-12.353c0.176,0,0.44-0.091,0.617-0.179c6.264-2.646,11.821-7.41,16.763-14.217
	c4.94-6.882,7.499-13.675,8.293-16.321c1.323-3.706,1.854-7.234,1.766-10.058c-0.178-4.323-2.029-6.176-3.618-6.881
	c-0.97-0.529-3.176-1.147-5.91,0.441c-1.5,0.971-3.088,2.559-4.588,4.764c-3.088,4.323-6.882,11.028-10.499,18.792
	c-3.528,7.323-6.616,15.013-8.646,21.188c-0.547,1.691-0.989,3.283-1.332,4.777c-1.626,3.287-2.794,6.475-6.169,8.896
	c-2.382,1.766-4.939,2.295-6.353,2.295h-0.088c-1.411,0-2.823-0.088-3.529-1.146c-0.617-0.883-1.764-3.795,0.971-12.352
	c0.178,0,0.441-0.09,0.618-0.178c6.265-2.646,11.821-7.411,16.763-14.218c4.939-6.882,7.499-13.675,8.293-16.321
	c1.322-3.706,1.854-7.234,1.765-10.058c-0.177-4.323-2.029-6.176-3.617-6.881c-0.971-0.529-3.176-1.147-5.911,0.441
	c-1.499,0.971-3.088,2.559-4.588,4.764c-3.088,4.323-6.881,11.028-10.498,18.792c-3.528,7.323-6.617,15.013-8.646,21.188
	c-0.507,1.565-0.925,3.049-1.256,4.447c-0.043,0.077-0.083,0.159-0.12,0.241c-3.972,9.353-12.616,12.793-17.469,12.793
	c-2.383,0-5.471-1.06-6.616-3.265c-0.441-0.795-0.617-1.766-0.529-2.823c18.88-3.526,23.202-11.026,24.085-15.263
	c0.353-1.764,0.265-3.528-0.354-5.028c-0.529-1.573-1.5-2.896-2.822-3.779c-0.795-0.529-3.972-2.293-8.734-0.882
	c-4.233,1.323-8.293,4.661-12.175,10.043c-1.935,2.65-3.418,5.199-4.452,7.578c-0.123,0.143-0.235,0.297-0.334,0.465
	c-3.971,6.514-10.41,11.719-14.998,11.982h-0.177c-0.794,0.088-1.06,0-1.146-0.088c-0.088-0.264-0.617-2.029,2.117-7.588
	c1.766-3.689,3.354-7.396,2.735-11.012c-0.618-3.354-2.912-6.177-7.588-9c0.177-0.794,0.354-1.485,0.354-2.191
	c0.176-3.087-1.588-4.234-2.383-4.587c-2.028-0.97-4.499,0-5.733,2.294c-0.795,1.5-0.971,3.25-0.354,4.925
	c0.177,0.441,0.44,0.971,0.706,1.412c-1.853,4.148-5.631,12.275-6.85,14.871c-4.28,7.797-8.4,11.58-12.613,11.58
	c-0.53,0-0.883,0-0.972-0.088c-0.089-0.264-0.089-0.971,0.354-2.733c0.265-0.884,0.706-1.854,1.059-2.822
	c0.884-0.971,1.5-1.678,1.854-2.207c2.823-3.616,3.617-5.896,2.734-7.836c-0.44-0.707-1.059-1.235-1.765-1.588
	c1.5,0.088,2.911-0.972,3.176-2.472c0.706-3.44-0.439-6.353-3.088-8.028c-4.058-2.558-10.66-1.588-16.042,2.294
	c-3.175,2.294-6.705,5.911-9.513,9.616c-0.271,0.37-0.551,0.762-0.833,1.168c-0.346,0.217-0.652,0.506-0.897,0.86
	c-3.882,5.822-6.97,8.81-8.91,10.219c-2.294,1.855-3.617,2.029-3.883,1.941c-0.176-0.176-0.794-1.322-0.44-4.234
	c0.177-2.366,1.059-6.514,3.793-12.952c0.706-1.574,0-3.339-1.588-4.044c-1.588-0.706-3.44,0-4.146,1.587
	c-1.853,4.31-5.117,9.514-8.381,13.571c-4.059,4.927-7.146,6.867-8.646,6.955c-0.266,0-0.529,0-1.06-0.705
	c-0.353-0.707-2.117-4.854,5.293-20.086c0.794-1.587,0.088-3.44-1.411-4.234c-1.588-0.706-3.44-0.088-4.234,1.5
	c-1.907,3.99-3.418,7.645-4.503,10.852c-0.344,0.062-0.679,0.17-0.991,0.326c-1.412,0.617-6.265,2.822-11.337,7.676
	c-0.617,0.617-1.235,1.234-1.854,1.764l1.588-4.059c0.794-0.881,1.323-1.588,1.588-1.938c2.868-3.707,3.662-6,2.706-7.941
	c-0.353-0.704-0.956-1.233-1.734-1.588c1.559,0.091,2.867-0.969,3.22-2.47c0.617-3.44-0.441-6.352-3.132-8.014
	C104.616,52.92,98,53.89,92.618,57.846c-3.177,2.293-6.705,5.823-9.528,9.528c-2.471,3.265-5.47,8.117-5.911,12.705
	c-0.265,2.909,0.529,5.558,2.382,7.498c1.854,1.94,4.323,3,7.146,2.821c3.087-0.088,6.352-1.676,9.352-3.793
	c-1.77,5.877-2.772,10.658-3.339,14.308l-0.123,0.053c-0.072,0.765-0.138,1.519-0.199,2.261c-0.434,3.528-0.41,5.604-0.398,6.176
	c-0.202,4.535-0.144,8.373,0.216,11.164c0.235,1.631,1.833,2.854,3.581,2.666c0.278-0.025,0.521-0.133,0.844-0.273
	c1.211-0.533,1.987-1.838,1.823-3.307c-0.314-2.408-0.368-5.85-0.192-9.975c1.241-10.214,5.209-18.669,11.963-25.189
	c2.401-2.282,4.728-3.901,6.526-4.985c-0.268,3.104,0.176,5.574,1.329,7.457c1.5,2.384,3.706,3.705,6.264,3.705h0.618
	c3.617-0.267,7.675-3.088,12.086-8.293c0.441,3.972,2.206,5.821,3.793,6.705c1.941,1.06,5.293,1.5,10.234-2.117
	c0.551-0.405,1.11-0.858,1.68-1.356c0.37,1.438,1.085,2.731,2.081,3.828c1.764,1.938,4.146,2.909,6.69,2.909h0.44
	c3.97-0.176,8.028-2.559,11.646-5.469c0.176,0.616,0.44,1.233,0.689,1.765c0.883,1.323,2.647,2.823,6.266,2.823
	c3.527,0,6.969-1.323,10.042-4.147c2.522-2.226,4.982-5.324,7.381-9.455c0.211-0.226,0.394-0.484,0.54-0.777
	c0.031-0.08,0.188-0.424,0.436-0.965c0.126-0.234,0.252-0.473,0.378-0.711c0.119-0.225,0.207-0.459,0.27-0.697
	c1.385-3.014,3.797-8.238,5.445-11.905c3.088,2.03,3.617,3.352,3.794,4.235c0.266,1.588-0.617,3.881-2.206,7.146
	c-1.588,3.16-2.47,5.807-2.733,8.014c-0.354,2.381,0,4.322,1.059,5.822c0.882,1.324,2.646,2.821,5.999,2.821h0.794h0.088
	c3.529-0.264,7.411-1.938,11.205-5.026c0.859-0.681,1.707-1.416,2.532-2.203c0.18,0.547,0.401,1.074,0.666,1.584
	c2.47,4.854,8.116,6.617,12.175,6.617c3.971,0,8.558-1.412,12.438-3.881c1.785-1.104,3.415-2.398,4.877-3.863
	c0.311,0.938,0.73,1.779,1.264,2.525c2.646,3.616,6.881,3.704,8.646,3.704h0.088c5.091,0,9.238-2.899,12.325-6.229
	c0.312,0.938,0.731,1.779,1.264,2.525c2.646,3.616,6.882,3.704,8.646,3.704h0.089c4.554,0,8.353-2.319,11.313-5.192l0.047,0.09
	c2.471,4.854,8.116,6.617,12.175,6.617c3.971,0,8.559-1.412,12.439-3.881c4.852-3,8.558-7.412,10.852-12.793
	C335.521,73.55,334.815,71.697,333.227,71.079z M309.579,68.168c3.794-5.294,6.882-7.058,8.821-7.676
	c0.707-0.177,1.324-0.265,1.854-0.265c0.794,0,1.412,0.176,1.676,0.353c0.265,0.176,0.706,1.058,0.441,2.293
	c-0.617,3.178-5.116,7.146-15.615,9.705C307.55,71.166,308.433,69.756,309.579,68.168z M303.866,31.613
	c1.146-1.588,2.028-2.382,2.559-2.735c0.088,0.353,0.176,1.059,0.175,2.029c0,1.324-0.265,3.617-1.411,6.97
	c-2.646,7.94-8.47,18.262-16.674,24.011C292.927,50.669,299.101,38.318,303.866,31.613z M281.543,31.613
	c1.147-1.588,2.03-2.382,2.559-2.735c0.088,0.353,0.176,1.059,0.176,2.029c0,1.324-0.265,3.617-1.411,6.97
	c-2.647,7.94-8.47,18.262-16.675,24.011C270.604,50.669,276.779,38.318,281.543,31.613z M236.409,68.168
	c3.793-5.294,6.881-7.058,8.821-7.676c0.707-0.177,1.324-0.265,1.854-0.265c0.794,0,1.411,0.176,1.676,0.353
	c0.264,0.176,0.706,1.058,0.441,2.293c-0.617,3.178-5.117,7.146-15.615,9.705C234.38,71.166,235.262,69.756,236.409,68.168z
	 M101.528,71.607c-0.353,0.883-0.706,1.676-0.97,2.471c-4.588,5.205-10.411,9.969-14.116,10.057c-0.97,0.09-1.676-0.176-2.293-0.881
	c-0.353-0.354-0.882-1.059-0.706-2.646c0.529-5.559,7.853-14.116,12.881-17.733c2.47-1.853,5.116-2.558,6.881-2.558
	c0.882,0,1.588,0.176,2.028,0.441c0.266,0.177,0.617,0.353,0.354,1.5c-0.266,1.5,0.529,3,1.939,3.529h-0.353
	C104.528,65.873,102.675,69.049,101.528,71.607z M176.87,73.549l-0.529,1.146c-0.265,0.529-0.44,0.971-0.705,1.5
	c-4.573,5.117-10.22,9.705-13.925,9.881c-0.97,0.088-1.676-0.176-2.279-0.883c-0.353-0.439-0.794-1.059-0.706-2.646
	c0.53-5.556,7.837-14.115,12.866-17.732c2.559-1.853,5.102-2.559,6.955-2.559c0.882,0,1.499,0.177,1.939,0.442
	c0.266,0.088,0.619,0.354,0.354,1.5c-0.264,1.5,0.618,3,1.941,3.529h-0.266c-1.323,0-2.471,0.705-3.617,2.205
	C178.194,70.814,177.488,72.137,176.87,73.549z M83.044,5.023C82.163,3.57,81.144,3,80.091,3c-2.911,0-6.079,4.351-7.301,6.42
	c-8.438,14.292-13.344,30.325-22.657,44.16c-10.216-5.176-22.166-6.613-33.016-2.218c-3.744,1.517-2.109,7.661,1.688,6.123
	c8.837-3.579,18.844-2.631,27.564,1.366C34.915,74.07,20.048,87.496,2.145,94.318c-3.786,1.443-2.144,7.584,1.689,6.123
	c17.893-6.818,32.627-19.31,44.612-34.037c1.201-1.475,2.348-2.975,3.456-4.494c8.98,5.885,15.681,15.172,16.669,25.813
	c0.374,4.014,6.272,4.16,6.351,0c0.404-21.621,4.089-42.451,7.492-63.712C83.228,18.932,85.97,9.843,83.044,5.023z M77.374,14.321
	c-0.409,4.289-1.153,8.55-1.874,12.795c-2.512,14.771-4.85,29.413-6.074,44.251c-3.464-5.771-8.309-10.796-13.95-14.632
	c6.754-10.347,11.914-21.499,17.177-32.85c1.424-3.068,2.872-6.123,4.439-9.12c0.094-0.179,0.193-0.374,0.294-0.578
	C77.383,14.231,77.378,14.277,77.374,14.321z M153.107,114.695h-3.344v4.555h-2.311v-11.662h6.688c0.771,0,1.938,0.109,2.816,0.99
	c0.792,0.792,0.945,1.85,0.945,2.641c0,0.684-0.109,1.432-0.659,2.135c-0.396,0.506-0.946,0.901-1.629,1.145l2.772,4.753h-2.596
	L153.107,114.695z M153.987,112.451c0.418,0,0.837-0.021,1.166-0.354c0.265-0.264,0.374-0.66,0.374-1.033
	c0-0.551-0.241-0.881-0.483-1.035c-0.33-0.24-0.792-0.219-1.232-0.219h-4.048v2.641H153.987z M166.592,107.588h9.373v2.223h-7.063
	v2.135h4.291v2.223h-4.291v2.859h7.503v2.224h-9.813V107.588z M193.895,111.021c-0.639-0.418-1.363-0.793-2.047-1.035
	c-0.703-0.241-1.604-0.396-2.396-0.396c-0.858,0-1.32,0.132-1.606,0.286c-0.528,0.242-0.704,0.594-0.704,0.924
	c0,0.506,0.483,0.704,0.66,0.771c0.265,0.088,0.683,0.176,1.892,0.285l1.563,0.133c1.231,0.109,2.421,0.439,3.19,1.121
	c0.507,0.418,1.121,1.166,1.121,2.398c0,0.793-0.241,1.936-1.386,2.883c-1.275,1.033-2.904,1.145-3.96,1.145
	c-1.211,0-2.377-0.176-3.455-0.551c-0.969-0.352-1.805-0.793-2.574-1.475l1.408-1.957c0.615,0.506,1.363,0.967,2.156,1.297
	c0.813,0.33,1.604,0.463,2.596,0.463c0.705,0,1.432-0.088,1.98-0.418c0.683-0.375,0.836-0.902,0.836-1.276
	c0-0.726-0.572-1.013-0.924-1.166c-0.595-0.242-1.166-0.242-1.693-0.308l-1.717-0.133c-1.52-0.109-2.686-0.484-3.367-1.188
	c-0.418-0.418-0.703-0.969-0.703-1.826c0-1.32,0.638-2.111,1.232-2.618c0.638-0.528,1.737-1.034,3.586-1.034
	c1.078,0,2.09,0.133,3.213,0.551c0.856,0.285,1.562,0.615,2.332,1.209L193.895,111.021z M204.497,107.588h2.333v11.706h-2.333
	V107.588z M216.465,119.25v-11.662h5.083c3.719,0,6.096,2.486,6.096,5.854c0,3.345-2.289,5.81-6.096,5.81L216.465,119.25
	L216.465,119.25z M218.798,109.811v7.217h2.75c2.486,0,3.741-1.43,3.741-3.607c0-2.111-1.364-3.607-3.741-3.607h-2.75V109.811z
	 M236.31,107.588h9.373v2.223h-7.063v2.135h4.291v2.223h-4.291v2.859h7.504v2.224h-9.813L236.31,107.588L236.31,107.588z
	 M256.703,112.012v7.238h-2.311v-11.662h1.408l6.402,7.239v-7.239h2.311v11.662h-1.386L256.703,112.012z M284.578,116.303
	c-0.528,1.033-1.299,1.825-2.091,2.354c-0.969,0.638-1.959,0.88-3.213,0.88c-1.605,0-3.169-0.396-4.423-1.694
	c-0.946-0.945-1.672-2.465-1.672-4.335c0-1.604,0.55-3.3,1.694-4.466c0.77-0.771,2.134-1.693,4.422-1.693
	c1.255,0,2.333,0.285,3.146,0.791c0.728,0.418,1.476,1.1,2.024,1.914l-1.958,1.387c-0.33-0.527-0.792-1.057-1.32-1.387
	c-0.462-0.264-1.1-0.462-1.914-0.462c-1.122,0-1.937,0.308-2.641,1.013c-0.55,0.549-1.1,1.475-1.1,2.883
	c0,1.232,0.482,2.222,1.121,2.859c0.595,0.594,1.408,0.946,2.53,0.946c0.88,0,1.563-0.242,2.2-0.704
	c0.506-0.374,1.012-0.902,1.342-1.673L284.578,116.303z M293.135,107.588h9.373v2.223h-7.063v2.135h4.291v2.223h-4.291v2.859h7.505
	v2.224h-9.813L293.135,107.588L293.135,107.588z"/>
</svg>
