<?xml version="1.0" encoding="utf-8"?>
<!-- Generator: Adobe Illustrator 16.0.0, SVG Export Plug-In . SVG Version: 6.00 Build 0)  -->
<!DOCTYPE svg PUBLIC "-//W3C//DTD SVG 1.1//EN" "http://www.w3.org/Graphics/SVG/1.1/DTD/svg11.dtd">
<svg version="1.1" id="Layer_1" xmlns="http://www.w3.org/2000/svg" xmlns:xlink="http://www.w3.org/1999/xlink" x="0px" y="0px"
	 width="164.881px" height="170px" viewBox="0 0 164.881 170" enable-background="new 0 0 164.881 170" xml:space="preserve">
<g>
	<path fill="#FFFFFF" d="M139.653,27.968C126.042,14.356,107.938,6.86,88.69,6.86c-3.156,0-5.712,2.559-5.712,5.711
		c0,3.153,2.556,5.711,5.712,5.711c16.199,0,31.433,6.31,42.888,17.765s17.765,26.688,17.765,42.888c0,3.156,2.555,5.71,5.711,5.71
		c3.153,0,5.711-2.554,5.711-5.706C160.765,59.682,153.27,41.583,139.653,27.968z"/>
	<path fill="#FFFFFF" d="M116.163,78.938c0,3.152,2.555,5.711,5.711,5.706c3.153,0,5.711-2.554,5.711-5.71
		c-0.004-21.441-17.449-38.888-38.895-38.891c-3.156,0-5.712,2.555-5.712,5.711c0,3.153,2.556,5.711,5.712,5.711
		C103.838,51.465,116.159,63.792,116.163,78.938z"/>
	<path fill="#FFFFFF" d="M103.525,108.054c-8.704-0.45-13.14,6.023-15.267,9.132c-1.78,2.606-1.115,6.156,1.487,7.941
		c2.606,1.781,6.157,1.111,7.938-1.491c2.514-3.673,3.651-4.253,5.197-4.179c4.941,0.58,24.409,14.846,26.357,19.308
		c0.491,1.313,0.473,2.599-0.052,4.168c-2.045,6.064-5.429,10.325-9.786,12.325c-4.142,1.896-9.217,1.726-14.679-0.494
		c-20.39-8.313-38.203-19.91-52.945-34.474c-0.007-0.008-0.011-0.012-0.018-0.019c-14.531-14.728-26.109-32.519-34.408-52.874
		c-2.22-5.466-2.394-10.544-0.494-14.683c1.996-4.357,6.261-7.741,12.321-9.782c1.568-0.528,2.855-0.547,4.156-0.06
		c4.477,1.956,18.744,21.42,19.319,26.31c0.082,1.602-0.501,2.74-4.172,5.245c-2.605,1.782-3.275,5.332-1.494,7.938
		c1.777,2.604,5.333,3.272,7.935,1.495c3.111-2.127,9.584-6.547,9.136-15.285c-0.495-9.121-18.242-33.285-26.723-36.403
		c-3.773-1.406-7.74-1.428-11.797-0.066c-9.128,3.074-15.72,8.555-19.065,15.849c-3.243,7.076-3.138,15.288,0.3,23.748
		c8.883,21.787,21.305,40.85,36.924,56.662c0.041,0.037,0.078,0.078,0.119,0.115c15.798,15.59,34.837,27.993,56.596,36.86
		c4.357,1.771,8.648,2.659,12.753,2.659c3.863,0,7.563-0.785,10.994-2.357c7.295-3.347,12.775-9.938,15.851-19.074
		c1.36-4.049,1.338-8.012-0.056-11.768C136.824,126.298,112.664,108.552,103.525,108.054z"/>
</g>
</svg>
