<?xml version="1.0" encoding="utf-8"?>
<!-- Generator: Adobe Illustrator 16.0.0, SVG Export Plug-In . SVG Version: 6.00 Build 0)  -->
<!DOCTYPE svg PUBLIC "-//W3C//DTD SVG 1.1//EN" "http://www.w3.org/Graphics/SVG/1.1/DTD/svg11.dtd">
<svg version="1.1" id="Layer_1" xmlns="http://www.w3.org/2000/svg" xmlns:xlink="http://www.w3.org/1999/xlink" x="0px" y="0px"
	 width="141.73px" height="141.73px" viewBox="0 0 141.73 141.73" enable-background="new 0 0 141.73 141.73" xml:space="preserve">
<g>
	<path fill="#FFFFFF" d="M70.692,141.73c-1.12,0-2.188-0.468-2.966-1.271c-2.117-2.272-52.249-55.726-52.249-85.25
		C15.478,24.751,40.231,0,70.692,0c30.432,0,55.187,24.751,55.187,55.209c0,29.525-50.112,82.978-52.252,85.25
		C72.869,141.263,71.803,141.73,70.692,141.73L70.692,141.73z M70.692,8.09c-25.983,0-47.105,21.144-47.105,47.098
		c0,20.457,31.618,59.493,47.105,76.51c15.46-17.018,47.098-56.054,47.098-76.51C117.79,29.234,96.645,8.09,70.692,8.09L70.692,8.09
		z"/>
	<path fill="#FFFFFF" d="M70.692,72.481c-12.88,0-23.354-10.472-23.354-23.351c0-12.882,10.474-23.354,23.354-23.354
		c12.853,0,23.347,10.471,23.347,23.354C94.039,62.009,83.567,72.481,70.692,72.481L70.692,72.481z M70.692,33.89
		c-8.425,0-15.266,6.837-15.266,15.24c0,8.419,6.841,15.262,15.266,15.262c8.396,0,15.237-6.843,15.237-15.262
		C85.929,40.727,79.089,33.89,70.692,33.89L70.692,33.89z"/>
</g>
</svg>
