<?xml version="1.0" encoding="utf-8"?>
<!-- Generator: Adobe Illustrator 16.0.0, SVG Export Plug-In . SVG Version: 6.00 Build 0)  -->
<!DOCTYPE svg PUBLIC "-//W3C//DTD SVG 1.1//EN" "http://www.w3.org/Graphics/SVG/1.1/DTD/svg11.dtd">
<svg version="1.1" id="Layer_1" xmlns="http://www.w3.org/2000/svg" xmlns:xlink="http://www.w3.org/1999/xlink" x="0px" y="0px"
	 width="411px" height="104px" viewBox="0 0 411 104" enable-background="new 0 0 411 104" xml:space="preserve">
<path fill="#9B9A9A" d="M2.362,2.627h4.854c2.28,0,3.929,0.341,4.948,1.023c1.018,0.682,1.528,1.759,1.528,3.232
	c0,1.019-0.284,1.859-0.852,2.521c-0.568,0.662-1.397,1.091-2.486,1.287v0.117c2.609,0.447,3.914,1.818,3.914,4.114
	c0,1.536-0.519,2.734-1.557,3.596c-1.039,0.862-2.49,1.293-4.354,1.293H2.362V2.627z M4.36,9.984h3.291
	c1.41,0,2.425-0.221,3.044-0.664c0.619-0.442,0.928-1.188,0.928-2.239c0-0.964-0.345-1.659-1.034-2.086
	C9.9,4.568,8.803,4.354,7.298,4.354H4.36V9.984z M4.36,11.677v6.429h3.584c1.387,0,2.431-0.269,3.132-0.805
	c0.701-0.536,1.052-1.377,1.052-2.521c0-1.065-0.358-1.849-1.075-2.351c-0.717-0.502-1.807-0.752-3.273-0.752H4.36z M31.39,24.289
	h-1.904v-4.478H17.544v4.478H15.64V18h1.328c1.207-2.029,2.239-4.497,3.097-7.404c0.858-2.907,1.334-5.563,1.428-7.969h7.722V18
	h2.174L31.39,24.289L31.39,24.289z M27.217,18V4.425h-3.914c-0.141,1.896-0.615,4.174-1.422,6.834
	c-0.807,2.66-1.747,4.907-2.821,6.74L27.217,18L27.217,18z M47.112,14.803c0,1.614-0.507,2.852-1.522,3.714
	c-1.015,0.862-2.498,1.293-4.448,1.293h-5.183V4.402H32.01V2.627h5.947v7.334h2.868c2.045,0,3.604,0.402,4.678,1.205
	C46.575,11.969,47.112,13.181,47.112,14.803z M37.957,18.083h2.961c1.418,0,2.458-0.272,3.121-0.817s0.993-1.365,0.993-2.462
	c0-1.065-0.343-1.845-1.028-2.339c-0.686-0.494-1.824-0.74-3.415-0.74h-2.632V18.083z M62.036,19.811h-2.268l-4.62-7.557
	l-4.701,7.557h-2.115l5.712-8.979L48.72,2.627h2.209l4.267,6.805l4.301-6.805h2.127L56.3,10.76L62.036,19.811z M77.417,19.811
	h-1.998v-8.086h-9.05v8.086h-1.998V2.627h1.998v7.311h9.05V2.627h1.998V19.811z M96.924,11.195c0,2.75-0.695,4.913-2.086,6.487
	c-1.391,1.575-3.324,2.362-5.8,2.362c-2.531,0-4.484-0.773-5.859-2.321c-1.375-1.548-2.063-3.732-2.063-6.553
	c0-2.797,0.689-4.965,2.068-6.505s3.338-2.31,5.876-2.31c2.468,0,4.396,0.784,5.783,2.351C96.231,6.275,96.924,8.438,96.924,11.195z
	 M83.232,11.195c0,2.327,0.496,4.092,1.487,5.294c0.991,1.203,2.431,1.804,4.319,1.804c1.904,0,3.342-0.6,4.313-1.798
	c0.971-1.199,1.457-2.965,1.457-5.3c0-2.312-0.484-4.065-1.451-5.26c-0.968-1.195-2.4-1.792-4.296-1.792
	c-1.904,0-3.352,0.601-4.343,1.804C83.728,7.15,83.232,8.9,83.232,11.195z M100.636,2.627h4.854c2.28,0,3.929,0.341,4.948,1.023
	c1.018,0.682,1.528,1.759,1.528,3.232c0,1.019-0.284,1.859-0.852,2.521c-0.568,0.662-1.397,1.091-2.486,1.287v0.117
	c2.609,0.447,3.914,1.818,3.914,4.114c0,1.536-0.519,2.734-1.557,3.596c-1.039,0.862-2.49,1.293-4.354,1.293h-5.994L100.636,2.627
	L100.636,2.627z M102.634,9.984h3.291c1.41,0,2.425-0.221,3.044-0.664c0.619-0.442,0.928-1.188,0.928-2.239
	c0-0.964-0.345-1.659-1.034-2.086c-0.689-0.427-1.786-0.641-3.291-0.641h-2.938V9.984z M102.634,11.677v6.429h3.584
	c1.387,0,2.431-0.269,3.132-0.805c0.701-0.536,1.052-1.377,1.052-2.521c0-1.065-0.358-1.849-1.075-2.351
	c-0.717-0.502-1.808-0.752-3.273-0.752H102.634z M125.69,19.811h-9.579V2.627h9.579v1.775h-7.581v5.536h7.123v1.763h-7.123v6.323
	h7.581V19.811z M142.424,19.811h-1.998v-8.086h-9.05v8.086h-1.998V2.627h1.998v7.311h9.05V2.627h1.998V19.811z M168.063,11.195
	c0,2.75-0.695,4.913-2.086,6.487c-1.391,1.575-3.324,2.362-5.8,2.362c-2.531,0-4.484-0.773-5.859-2.321
	c-1.375-1.548-2.063-3.732-2.063-6.553c0-2.797,0.689-4.965,2.068-6.505c1.379-1.54,3.338-2.31,5.876-2.31
	c2.468,0,4.396,0.784,5.783,2.351C167.37,6.275,168.063,8.438,168.063,11.195z M154.371,11.195c0,2.327,0.496,4.092,1.487,5.294
	c0.991,1.203,2.431,1.804,4.319,1.804c1.904,0,3.342-0.6,4.313-1.798c0.971-1.199,1.457-2.965,1.457-5.3
	c0-2.312-0.484-4.065-1.451-5.26c-0.968-1.195-2.4-1.792-4.296-1.792c-1.904,0-3.352,0.601-4.343,1.804
	C154.866,7.15,154.371,8.9,154.371,11.195z M177.063,19.811h-1.998V4.402h-5.442V2.627h12.881v1.775h-5.441V19.811z M191.102,2.627
	h4.854c2.28,0,3.929,0.341,4.948,1.023c1.018,0.682,1.528,1.759,1.528,3.232c0,1.019-0.284,1.859-0.852,2.521
	c-0.568,0.662-1.397,1.091-2.486,1.287v0.117c2.609,0.447,3.914,1.818,3.914,4.114c0,1.536-0.519,2.734-1.557,3.596
	c-1.039,0.862-2.49,1.293-4.354,1.293h-5.994L191.102,2.627L191.102,2.627z M193.1,9.984h3.291c1.41,0,2.425-0.221,3.044-0.664
	c0.619-0.442,0.928-1.188,0.928-2.239c0-0.964-0.345-1.659-1.034-2.086c-0.689-0.427-1.786-0.641-3.291-0.641H193.1V9.984z
	 M193.1,11.677v6.429h3.584c1.387,0,2.431-0.269,3.132-0.805c0.701-0.536,1.052-1.377,1.052-2.521c0-1.065-0.358-1.849-1.075-2.351
	s-1.808-0.752-3.273-0.752H193.1z M217.379,19.811l-2.139-5.465h-6.889l-2.115,5.465h-2.021l6.793-17.253h1.682l6.758,17.253
	H217.379z M214.617,12.547l-1.998-5.324c-0.26-0.674-0.525-1.5-0.799-2.479c-0.174,0.752-0.42,1.579-0.741,2.479l-2.021,5.324
	H214.617z M229.047,4.167c-1.889,0-3.379,0.628-4.472,1.886c-1.095,1.257-1.64,2.979-1.64,5.166c0,2.249,0.524,3.986,1.58,5.212
	c1.055,1.226,2.557,1.839,4.508,1.839c1.199,0,2.564-0.215,4.102-0.646v1.751c-1.191,0.447-2.66,0.67-4.407,0.67
	c-2.53,0-4.483-0.768-5.858-2.303c-1.375-1.536-2.063-3.718-2.063-6.546c0-1.771,0.331-3.322,0.993-4.654s1.618-2.358,2.868-3.08
	c1.25-0.721,2.721-1.081,4.412-1.081c1.803,0,3.377,0.329,4.726,0.987l-0.846,1.716C231.648,4.472,230.348,4.167,229.047,4.167z
	 M238.505,17.013l0.177,0.271c-0.203,0.784-0.498,1.694-0.882,2.732s-0.782,2.004-1.198,2.897h-1.47
	c0.212-0.815,0.444-1.822,0.699-3.021c0.255-1.199,0.435-2.158,0.535-2.879H238.505z M256.023,4.167
	c-1.891,0-3.379,0.628-4.474,1.886c-1.094,1.257-1.64,2.979-1.64,5.166c0,2.249,0.525,3.986,1.58,5.212s2.557,1.839,4.508,1.839
	c1.199,0,2.564-0.215,4.104-0.646v1.751c-1.191,0.447-2.66,0.67-4.408,0.67c-2.53,0-4.482-0.768-5.857-2.303
	c-1.376-1.536-2.063-3.718-2.063-6.546c0-1.771,0.33-3.322,0.992-4.654s1.617-2.358,2.867-3.08c1.25-0.721,2.723-1.081,4.413-1.081
	c1.804,0,3.377,0.329,4.726,0.987l-0.847,1.716C258.625,4.472,257.324,4.167,256.023,4.167z M276.684,14.803
	c0,1.614-0.509,2.852-1.521,3.714c-1.016,0.862-2.497,1.293-4.448,1.293h-5.185V4.402h-3.947V2.627h5.945v7.334h2.867
	c2.045,0,3.604,0.402,4.68,1.205C276.146,11.969,276.684,13.181,276.684,14.803z M267.525,18.083h2.963
	c1.418,0,2.457-0.272,3.121-0.817c0.66-0.544,0.992-1.365,0.992-2.462c0-1.065-0.345-1.845-1.028-2.339
	c-0.685-0.494-1.823-0.74-3.414-0.74h-2.634V18.083z M290.137,6.647c0,1.128-0.357,2.045-1.074,2.75
	c-0.719,0.705-1.707,1.152-2.969,1.34v0.094c1.434,0.196,2.521,0.646,3.262,1.352s1.11,1.626,1.11,2.762
	c0,1.606-0.6,2.858-1.799,3.755c-1.198,0.897-2.892,1.346-5.077,1.346c-1.998,0-3.636-0.309-4.912-0.928V17.26
	c0.752,0.36,1.564,0.639,2.438,0.834c0.872,0.196,1.714,0.294,2.521,0.294c1.553,0,2.725-0.294,3.521-0.882
	c0.795-0.587,1.191-1.434,1.191-2.539c0-1.05-0.439-1.845-1.32-2.386c-0.883-0.541-2.196-0.811-3.943-0.811h-2.563v-1.681h2.455
	c1.605,0,2.852-0.288,3.731-0.864c0.881-0.576,1.321-1.381,1.321-2.416c0-0.838-0.316-1.508-0.951-2.01
	c-0.637-0.501-1.489-0.752-2.563-0.752c-0.861,0-1.643,0.098-2.34,0.294c-0.695,0.196-1.504,0.583-2.421,1.164l-0.985-1.34
	c0.791-0.588,1.679-1.032,2.662-1.334c0.981-0.302,2.004-0.453,3.062-0.453c1.763,0,3.144,0.386,4.144,1.158
	C289.637,4.311,290.137,5.346,290.137,6.647z M307.587,24.289h-1.903v-4.478h-11.939v4.478h-1.904V18h1.328
	c1.207-2.029,2.239-4.497,3.1-7.404c0.855-2.907,1.334-5.563,1.428-7.969h7.722V18h2.174v6.288L307.587,24.289L307.587,24.289z
	 M303.415,18V4.425h-3.914c-0.142,1.896-0.614,4.174-1.422,6.834c-0.808,2.66-1.747,4.907-2.82,6.74L303.415,18L303.415,18z
	 M321.158,19.811l-2.139-5.465h-6.89l-2.114,5.465h-2.021l6.793-17.253h1.681l6.759,17.253H321.158z M318.396,12.547l-1.998-5.324
	c-0.26-0.674-0.525-1.5-0.799-2.479c-0.175,0.752-0.42,1.579-0.742,2.479l-2.021,5.324H318.396z M339.021,24.289h-1.903v-4.478
	h-11.941v4.478h-1.903V18h1.328c1.207-2.029,2.238-4.497,3.099-7.404c0.856-2.907,1.334-5.563,1.428-7.969h7.724V18h2.174v6.288
	L339.021,24.289L339.021,24.289z M334.85,18V4.425h-3.914c-0.142,1.896-0.615,4.174-1.422,6.834c-0.808,2.66-1.748,4.907-2.82,6.74
	L334.85,18L334.85,18z M351.37,19.811h-9.579V2.627h9.579v1.775h-7.581v5.536h7.122v1.763h-7.122v6.323h7.581V19.811z
	 M368.104,19.811h-1.998v-8.086h-9.049v8.086h-1.998V2.627h1.998v7.311h9.049V2.627h1.998V19.811z M393.743,11.195
	c0,2.75-0.696,4.913-2.087,6.487c-1.391,1.575-3.324,2.362-5.801,2.362c-2.53,0-4.482-0.773-5.857-2.321
	c-1.376-1.547-2.063-3.732-2.063-6.553c0-2.797,0.688-4.965,2.067-6.505c1.379-1.54,3.338-2.31,5.876-2.31
	c2.469,0,4.396,0.784,5.782,2.351C393.048,6.273,393.743,8.438,393.743,11.195z M380.051,11.195c0,2.327,0.495,4.092,1.486,5.294
	c0.99,1.203,2.431,1.804,4.318,1.804c1.903,0,3.342-0.6,4.313-1.798c0.973-1.198,1.457-2.965,1.457-5.3
	c0-2.312-0.482-4.065-1.451-5.26c-0.968-1.195-2.398-1.792-4.296-1.792c-1.903,0-3.353,0.601-4.343,1.804
	C380.546,7.15,380.051,8.9,380.051,11.195z M402.743,19.811h-1.998V4.402h-5.44V2.627h12.881v1.775h-5.44L402.743,19.811
	L402.743,19.811z"/>
<path fill-rule="evenodd" clip-rule="evenodd" fill="#9B9A9A" d="M136.498,83.255H98.996V39.76H80.055v61.386h48.974L136.498,83.255
	L136.498,83.255z M182.489,39.76h-23.502l-24.816,61.386h19.905l3.945-10.175l6.84-17.887l5.788-14.997l5.787,14.997h-6.975
	l-6.662,17.887h20.479l3.947,10.175h20.083L182.489,39.76L182.489,39.76z M52.861,39.76H20.369h-8.372H1.003l9.241,17.894h20.694
	v-0.005h22.276c2.806,0,4.208,1.317,4.208,3.154c0,2.021-1.401,3.162-4.208,3.162H39.367h-8.429H11.997v37.181h18.941V81.852h21.923
	c15.436,0,23.501-7.276,23.501-21.048C76.362,47.039,68.296,39.76,52.861,39.76L52.861,39.76z M337.577,39.76h-42.693h-18.342
	c0,18.686,0,37.372,0,56.058v5.328h60.709h0.326h23.172l12.008-16.315l11.496,16.315h23.933L385.034,70.01l22.713-30.25h-23.494
	l-11.226,15.607L361.626,39.76h-23.944l22.627,30.34l-22.731,30.605V84.223h-42.693v-5.474h42.693V61.826h-42.693v-5.142h42.693
	V39.76L337.577,39.76z M271.421,101.146V39.76h-18.938v29.197L226.881,39.76h-19.3v61.386h18.938V68.435l28.679,32.712H271.421
	L271.421,101.146z"/>
</svg>
