<?xml version="1.0" encoding="utf-8"?>
<!-- Generator: Adobe Illustrator 16.0.0, SVG Export Plug-In . SVG Version: 6.00 Build 0)  -->
<!DOCTYPE svg PUBLIC "-//W3C//DTD SVG 1.1//EN" "http://www.w3.org/Graphics/SVG/1.1/DTD/svg11.dtd">
<svg version="1.1" id="Layer_1" xmlns="http://www.w3.org/2000/svg" xmlns:xlink="http://www.w3.org/1999/xlink" x="0px" y="0px"
	 width="411px" height="64.333px" viewBox="0 0 411 64.333" enable-background="new 0 0 411 64.333" xml:space="preserve">
<path fill-rule="evenodd" clip-rule="evenodd" fill="#FFFFFF" d="M136.769,45.323H99.192V1.74H80.213v61.507h49.072L136.769,45.323
	L136.769,45.323z M182.852,1.74h-23.549l-24.866,61.507h19.945l3.953-10.189l6.854-17.928l5.799-15.026l5.798,15.026h-6.989
	l-6.675,17.928h20.521l3.955,10.189h20.123L182.852,1.74L182.852,1.74z M52.964,1.74H20.407h-8.388H1.003l9.26,17.93h20.735v-0.004
	h22.32c2.812,0,4.216,1.32,4.216,3.162c0,2.023-1.404,3.166-4.216,3.166H39.444h-8.446H12.019v37.254h18.979v-19.33h21.966
	c15.466,0,23.548-7.291,23.548-21.09C76.513,9.033,68.431,1.74,52.964,1.74L52.964,1.74z M338.251,1.74h-42.779h-18.378
	c0,18.724,0,37.448,0,56.173v5.334h60.829h0.328h23.218L373.5,46.903l11.52,16.344H409l-23.197-31.195L408.561,1.74H385.02
	l-11.248,15.638L362.348,1.74h-23.992l22.672,30.403l-22.776,30.667V46.292h-42.779v-5.482h42.779v-16.96h-42.779v-5.152h42.779
	V1.74L338.251,1.74z M271.962,63.247V1.74h-18.977v29.256L227.332,1.74h-19.338v61.507h18.977V30.473l28.736,32.773H271.962
	L271.962,63.247z"/>
</svg>
